# xmcd
# 
# Track frame offsets:
#     187
#     30172
#     60687
#     93935
# 
# Disc length: 2371
# 
# Revision: 0
# Processed by: cddbd v1.5.2PL0 Copyright (c) Steve Scherf et al.
# Submitted via: BonkEnc v1.0.6
# 
DISCID=23094104
DTITLE=Charles Mingus - Black Saint and the Sinner Lady
DYEAR=1963
DGENRE=Big Band
TTITLE0=Solo Dancer
TTITLE1=Duet Solo Dancers
TTITLE2=Group Dancers
TTITLE3=Trio and Group Dancers
EXTD=
EXTT0=
EXTT1=
EXTT2=
EXTT3=
PLAYORDER=
